<svg width="14" height="12" viewBox="0 0 14 12" fill="none" xmlns="http://www.w3.org/2000/svg">
<path fill-rule="evenodd" clip-rule="evenodd" d="M0.667923 6.00009C0.666063 6.81986 0.629483 7.93799 1.13665 8.35595C1.60971 8.7458 1.94265 8.64535 2.80632 8.70873C3.6706 8.77271 5.49466 11.3133 6.90083 10.5097C7.62623 9.93928 7.68017 8.74341 7.68017 6.00009C7.68017 3.25677 7.62623 2.0609 6.90083 1.49047C5.49466 0.686249 3.6706 3.22747 2.80632 3.29145C1.94265 3.35483 1.60971 3.25438 1.13665 3.64423C0.629483 4.06219 0.666063 5.18032 0.667923 6.00009Z" stroke="white" stroke-linecap="round" stroke-linejoin="round"/>
<path d="M12.0562 1.93601C13.7563 4.38336 13.7618 7.6116 12.0562 10.0637" stroke="white" stroke-linecap="round" stroke-linejoin="round"/>
<path d="M10.3875 3.54295C11.2617 5.07007 11.2617 6.93503 10.3875 8.45737" stroke="white" stroke-linecap="round" stroke-linejoin="round"/>
</svg>
