<svg width="20" height="20" viewBox="0 0 20 20" fill="none" xmlns="http://www.w3.org/2000/svg">
<path opacity="0.4" d="M14.0755 -6.10352e-05H17.4615C18.8637 -6.10352e-05 20 1.14579 20 2.5599V5.97446C20 7.38858 18.8637 8.53443 17.4615 8.53443H14.0755C12.6732 8.53443 11.537 7.38858 11.537 5.97446V2.5599C11.537 1.14579 12.6732 -6.10352e-05 14.0755 -6.10352e-05Z" fill="white"/>
<path fill-rule="evenodd" clip-rule="evenodd" d="M2.53852 -6.10352e-05H5.92449C7.32676 -6.10352e-05 8.46301 1.14579 8.46301 2.5599V5.97446C8.46301 7.38858 7.32676 8.53443 5.92449 8.53443H2.53852C1.13626 8.53443 0 7.38858 0 5.97446V2.5599C0 1.14579 1.13626 -6.10352e-05 2.53852 -6.10352e-05ZM2.53852 11.4655H5.92449C7.32676 11.4655 8.46301 12.6113 8.46301 14.0254V17.44C8.46301 18.8531 7.32676 19.9999 5.92449 19.9999H2.53852C1.13626 19.9999 0 18.8531 0 17.44V14.0254C0 12.6113 1.13626 11.4655 2.53852 11.4655ZM17.4615 11.4655H14.0755C12.6732 11.4655 11.537 12.6113 11.537 14.0254V17.44C11.537 18.8531 12.6732 19.9999 14.0755 19.9999H17.4615C18.8637 19.9999 20 18.8531 20 17.44V14.0254C20 12.6113 18.8637 11.4655 17.4615 11.4655Z" fill="white"/>
</svg>
