<svg width="20" height="20" viewBox="0 0 20 20" fill="none" xmlns="http://www.w3.org/2000/svg">
<path d="M19.2352 10.6772C19.6576 10.6772 20 10.3346 20 9.91199V8.89176C20 4.84603 18.1978 2.87594 14.5055 2.87594H11.7802C11.3366 2.87804 10.9173 2.67318 10.6462 2.32185L9.76703 1.1521C9.19911 0.423044 8.3261 -0.00228705 7.4022 -5.22725e-05H5.48571C1.84615 -5.22725e-05 0 2.10197 0 6.25324V13.7554C0 17.6077 2.39121 19.9999 6.25055 19.9999H13.7407C17.5912 19.9999 19.9912 17.6077 19.9912 13.7554C19.9491 13.3621 19.6174 13.0639 19.222 13.0639C18.8266 13.0639 18.4948 13.3621 18.4527 13.7554C18.4527 16.7897 16.7824 18.4696 13.7407 18.4696H6.24176C3.2 18.4696 1.52967 16.7985 1.52967 13.7554V13.0254H13.8374C14.2598 13.0254 14.6022 12.6829 14.6022 12.2603C14.6022 11.8377 14.2598 11.4951 13.8374 11.4951H1.52967V6.21806C1.52967 2.91112 2.70769 1.49511 5.47692 1.49511H7.41099C7.85461 1.50167 8.27147 1.70857 8.54506 2.05799L9.42418 3.21894C9.98217 3.95868 10.8539 4.39474 11.7802 4.39748H14.4967C17.3538 4.39748 18.4615 5.67277 18.4615 8.89176V9.91199C18.4615 10.1165 18.5433 10.3124 18.6887 10.4562C18.834 10.5999 19.0308 10.6795 19.2352 10.6772Z" fill="white" fill-opacity="0.5"/>
</svg>
