<svg width="14" height="14" viewBox="0 0 14 14" fill="none" xmlns="http://www.w3.org/2000/svg">
<path fill-rule="evenodd" clip-rule="evenodd" d="M9.86846 0.833191H4.10046C2.09246 0.833191 0.83313 2.25586 0.83313 4.26919V9.69986C0.83313 11.7132 2.08713 13.1359 4.10046 13.1359H9.86513C11.8818 13.1359 13.1351 11.7132 13.1351 9.69986V4.26919C13.1378 2.25586 11.8838 0.833191 9.86846 0.833191Z" stroke="#DF6E49" stroke-linecap="round" stroke-linejoin="round"/>
<path fill-rule="evenodd" clip-rule="evenodd" d="M6.13541 4.85666C6.13541 5.53666 5.58474 6.08733 4.90474 6.08733C4.22541 6.08733 3.67407 5.53666 3.67407 4.85666C3.67407 4.17666 4.22541 3.626 4.90474 3.626C5.58407 3.62666 6.13474 4.17733 6.13541 4.85666Z" stroke="#DF6E49" stroke-linecap="round" stroke-linejoin="round"/>
<path d="M13.138 8.96733C12.5227 8.334 11.3393 7.05467 10.0527 7.05467C8.76533 7.05467 8.02333 9.87667 6.78533 9.87667C5.54733 9.87667 4.42267 8.60067 3.43067 9.41867C2.43867 10.236 1.5 11.9073 1.5 11.9073" stroke="#DF6E49" stroke-linecap="round" stroke-linejoin="round"/>
</svg>
