<svg width="20" height="22" viewBox="0 0 20 22" fill="none" xmlns="http://www.w3.org/2000/svg">
<path fill-rule="evenodd" clip-rule="evenodd" d="M18.8066 6.62352L18.1842 5.54343C17.6576 4.62951 16.4907 4.31423 15.5755 4.83863V4.83863C15.1399 5.09525 14.6201 5.16806 14.1307 5.041C13.6413 4.91393 13.2226 4.59743 12.9668 4.16128C12.8023 3.88406 12.7139 3.5683 12.7105 3.24595V3.24595C12.7254 2.72913 12.5304 2.22831 12.17 1.85758C11.8096 1.48685 11.3145 1.27777 10.7975 1.27798H9.54348C9.03695 1.27798 8.5513 1.47982 8.19398 1.83885C7.83667 2.19788 7.63716 2.6845 7.63959 3.19103V3.19103C7.62458 4.23683 6.77246 5.07672 5.72655 5.07661C5.4042 5.07326 5.08844 4.98485 4.81122 4.82032V4.82032C3.89605 4.29592 2.7291 4.6112 2.20252 5.52512L1.53433 6.62352C1.00839 7.5363 1.31938 8.70251 2.22998 9.23222V9.23222C2.82189 9.57395 3.18652 10.2055 3.18652 10.889C3.18652 11.5724 2.82189 12.204 2.22998 12.5457V12.5457C1.32054 13.0718 1.00921 14.2352 1.53433 15.1453V15.1453L2.16591 16.2345C2.41263 16.6797 2.82659 17.0082 3.31618 17.1473C3.80577 17.2865 4.33062 17.2248 4.77461 16.9759V16.9759C5.21106 16.7212 5.73117 16.6515 6.21932 16.7821C6.70748 16.9127 7.12322 17.233 7.37415 17.6716C7.53868 17.9488 7.62709 18.2646 7.63044 18.5869V18.5869C7.63044 19.6435 8.48694 20.5 9.54348 20.5H10.7975C11.8505 20.5 12.7055 19.649 12.7105 18.5961V18.5961C12.7081 18.0879 12.9089 17.5999 13.2681 17.2406C13.6274 16.8813 14.1155 16.6806 14.6236 16.683C14.9452 16.6916 15.2596 16.7797 15.5389 16.9393V16.9393C16.4517 17.4652 17.6179 17.1543 18.1476 16.2437V16.2437L18.8066 15.1453C19.0617 14.7074 19.1318 14.1859 19.0012 13.6963C18.8706 13.2066 18.5502 12.7893 18.111 12.5366V12.5366C17.6717 12.2839 17.3514 11.8665 17.2208 11.3769C17.0902 10.8872 17.1602 10.3657 17.4153 9.92787C17.5812 9.63824 17.8214 9.39811 18.111 9.23222V9.23222C19.0161 8.7028 19.3264 7.5434 18.8066 6.63268V6.63268V6.62352Z" stroke="white" stroke-opacity="0.5" stroke-width="1.5" stroke-linecap="round" stroke-linejoin="round"/>
<circle cx="10.1751" cy="10.889" r="2.63616" stroke="white" stroke-opacity="0.5" stroke-width="1.5" stroke-linecap="round" stroke-linejoin="round"/>
</svg>
