<svg width="20" height="20" viewBox="0 0 20 20" fill="none" xmlns="http://www.w3.org/2000/svg">
<path fill-rule="evenodd" clip-rule="evenodd" d="M17.5039 0.077355C18.1889 -0.12192 18.931 0.0703099 19.434 0.582588C19.937 1.09386 20.123 1.83963 19.918 2.53005L18.669 6.73194C18.55 7.1315 18.1339 7.35795 17.7359 7.23919C17.3389 7.11942 17.1129 6.69873 17.2319 6.30018L18.481 2.09728C18.551 1.86178 18.4259 1.70276 18.3689 1.64539C18.3119 1.58702 18.1519 1.46021 17.9209 1.52764L1.82937 6.20658C1.57336 6.28106 1.51736 6.49543 1.50536 6.584C1.49436 6.67256 1.49036 6.89398 1.71837 7.03488L5.10449 9.11822C5.4575 9.33561 5.5695 9.80058 5.35249 10.1569C5.21149 10.3883 4.96548 10.5172 4.71247 10.5172C4.57947 10.5172 4.44446 10.4819 4.32246 10.4065L0.936341 8.32212C0.265318 7.90948 -0.0866946 7.16673 0.018309 6.38271C0.123313 5.59769 0.658331 4.9747 1.41336 4.75529L17.5039 0.077355ZM16.0282 10.3493C16.1482 9.94873 16.5652 9.72128 16.9622 9.84205C17.3592 9.96182 17.5852 10.3825 17.4662 10.7821L15.1441 18.5961C14.9191 19.3519 14.2971 19.8833 13.5201 19.983C13.4331 19.995 13.3471 20.0001 13.2611 20.0001C12.583 20.0001 11.963 19.6518 11.602 19.054L7.50187 12.2646C7.32286 11.9666 7.36786 11.5842 7.61287 11.3386L13.4341 5.48013C13.7271 5.18525 14.2011 5.18525 14.4941 5.48013C14.7871 5.77502 14.7871 6.25308 14.4941 6.54797L9.08992 11.9878L12.8841 18.27C13.0221 18.4984 13.2391 18.4964 13.3291 18.4864C13.4171 18.4743 13.6301 18.4199 13.7061 18.1643L16.0282 10.3493Z" fill="white" fill-opacity="0.5"/>
</svg>
