<svg width="18" height="20" viewBox="0 0 18 20" fill="none" xmlns="http://www.w3.org/2000/svg">
<path fill-rule="evenodd" clip-rule="evenodd" d="M6.04617 3.49689H17.286C17.6801 3.49689 18 3.82388 18 4.22788C18 4.63287 17.6801 4.95986 17.286 4.95986H0.712978C0.318938 4.95986 0 4.63287 0 4.22788C0 3.82388 0.318938 3.49689 0.712978 3.49689H3.90723C4.33248 3.49689 4.70214 3.18589 4.78504 2.7599L5.02303 1.53992C5.26394 0.61393 6.04422 -6.10352e-05 6.93178 -6.10352e-05H11.0682C11.9558 -6.10352e-05 12.7361 0.61393 12.9662 1.49392C13.0687 1.88491 12.8424 2.2859 12.462 2.3909C12.0826 2.4959 11.6905 2.26391 11.5881 1.87291C11.5247 1.63191 11.3111 1.46392 11.0682 1.46392H6.93178C6.68892 1.46392 6.47532 1.63191 6.41192 1.87291L6.18467 3.04589C6.15345 3.20389 6.10469 3.35189 6.04617 3.49689ZM5.1547 18.4967C4.23788 18.4767 3.71899 17.9667 3.61268 16.9797C3.30642 14.1567 2.78169 7.47183 2.77681 7.40483C2.7456 7.00183 2.4013 6.71484 2.00824 6.73284C1.61517 6.76584 1.32257 7.11883 1.35475 7.52083C1.35963 7.58882 1.88534 14.2967 2.19355 17.1427C2.37789 18.8457 3.50051 19.9246 5.12544 19.9596H5.14007C5.52728 19.9596 5.84525 19.6426 5.85402 19.2437C5.86183 18.8397 5.54874 18.5047 5.1547 18.4967ZM15.9916 6.73314C15.6034 6.71214 15.2542 7.00113 15.223 7.40413C15.2181 7.47113 14.6895 14.174 14.3862 16.975C14.2779 17.983 13.7522 18.482 12.7778 18.501L12.3905 18.5079C11.1533 18.5302 10.5775 18.5405 9.19536 18.536H9.19341C8.79937 18.536 8.48043 18.861 8.47946 19.264C8.47751 19.6689 8.79645 19.9969 9.19049 19.9989C9.43432 19.9999 9.67718 19.9999 9.92102 19.9999C10.9402 19.9999 11.3473 19.9918 12.1116 19.9765C12.3121 19.9724 12.5371 19.9679 12.8041 19.9629C14.4954 19.9319 15.618 18.875 15.8053 17.135C16.1106 14.314 16.6402 7.58913 16.6451 7.52213C16.6772 7.11913 16.3846 6.76614 15.9916 6.73314Z" fill="white" fill-opacity="0.5"/>
</svg>
