<svg width="34" height="34" viewBox="0 0 34 34" fill="none" xmlns="http://www.w3.org/2000/svg">
<path fill-rule="evenodd" clip-rule="evenodd" d="M21.5915 3.17993L28.7465 10.7051C28.9357 10.9047 29.0417 11.17 29.0417 11.4467V24.5529C29.0417 28.1386 26.1449 31.1667 22.7144 31.1667H11.4325C7.80139 31.1667 4.95833 28.2613 4.95833 24.5529V20.9787C4.95833 20.3882 5.43288 19.9089 6.01759 19.9089C6.60231 19.9089 7.07685 20.3882 7.07685 20.9787V24.5529C7.07685 27.1032 8.94821 29.0272 11.4325 29.0272H22.7144C24.9967 29.0272 26.9231 26.9776 26.9231 24.5529V11.876L21.5153 6.18798V8.05357C21.5153 9.48557 22.6692 10.6537 24.0872 10.6566C24.6719 10.658 25.145 11.1372 25.1436 11.7291C25.1422 12.3182 24.669 12.796 24.0843 12.796H24.0829C21.4997 12.7903 19.3968 10.6637 19.3968 8.05357V4.98989H11.4325C9.07109 4.98989 7.07685 6.93536 7.07685 9.23882V15.1636C7.07685 15.7541 6.60231 16.2334 6.01759 16.2334C5.43288 16.2334 4.95833 15.7541 4.95833 15.1636V9.23882C4.95833 5.77578 7.92285 2.85045 11.4325 2.85045H20.3741C20.3877 2.84915 20.4001 2.84545 20.4122 2.84183C20.4266 2.83753 20.4407 2.83334 20.456 2.83334C20.4725 2.83334 20.4873 2.83776 20.502 2.84218C20.5137 2.84569 20.5254 2.84919 20.5379 2.85045H20.8275C21.1156 2.85045 21.391 2.96883 21.5915 3.17993ZM17.5147 22.8215C17.5147 23.412 17.0401 23.8912 16.4554 23.8912C15.8707 23.8912 15.3961 23.412 15.3961 22.8215V16.0352L13.1971 18.2674C12.7847 18.6867 12.1138 18.6867 11.6986 18.2702C11.2848 17.8537 11.2834 17.1763 11.6958 16.7569L15.7054 12.6906V12.6891C15.8975 12.4966 16.163 12.3768 16.4554 12.3768C16.7492 12.3768 17.0133 12.4966 17.2054 12.6891V12.6906L21.215 16.7569C21.6274 17.1763 21.626 17.8537 21.2122 18.2702C21.0046 18.477 20.7348 18.5812 20.4636 18.5812C20.1925 18.5812 19.9213 18.477 19.7137 18.2674L17.5147 16.0352V22.8215Z" fill="#6E47D5"/>
</svg>
