<svg width="14" height="12" viewBox="0 0 14 12" fill="none" xmlns="http://www.w3.org/2000/svg">
<path fill-rule="evenodd" clip-rule="evenodd" d="M9.86455 8.35888C9.91848 9.58025 8.93274 10.6131 7.66304 10.665C7.56951 10.6689 3.01017 10.6597 3.01017 10.6597C1.7466 10.7556 0.640725 9.84766 0.54106 8.63088C0.533551 8.54021 0.535599 3.64813 0.535599 3.64813C0.479623 2.42544 1.46399 1.38999 2.73438 1.33612C2.82927 1.33152 7.38247 1.34006 7.38247 1.34006C8.65218 1.24545 9.76147 2.16001 9.85977 3.3827C9.86659 3.47074 9.86455 8.35888 9.86455 8.35888Z" stroke="#36978D" stroke-linecap="round" stroke-linejoin="round"/>
<path d="M9.86664 4.65325L12.062 2.85658C12.606 2.41125 13.422 2.79925 13.4213 3.50125L13.4133 8.40058C13.4126 9.10258 12.596 9.48724 12.0533 9.04191L9.86664 7.24524" stroke="#36978D" stroke-linecap="round" stroke-linejoin="round"/>
</svg>
